<mxfile host="app.diagrams.net" modified="2023-07-20T08:01:21.209Z" agent="Mozilla/5.0 (Windows NT 10.0; Win64; x64) AppleWebKit/537.36 (KHTML, like Gecko) Chrome/114.0.0.0 Safari/537.36" version="21.5.2" etag="5XHX-A14kdY2aOS1-Eb0" type="github">
  <diagram name="페이지-1" id="g0Sgt6GQTyfQukyjMtYc">
    <mxGraphModel>
      <root>
        <mxCell id="0" />
        <mxCell id="1" parent="0" />
      </root>
    </mxGraphModel>
  </diagram>
</mxfile>
